<svg width="339" height="56" viewBox="0 0 339 56" fill="none" xmlns="http://www.w3.org/2000/svg">
<rect x="55" y="4" width="68.422" height="47.6" rx="11" fill="#459EB5"/>
<path d="M99.0526 26.2132C100.316 27.0074 100.316 28.9926 99.0526 29.7868L84.8421 38.7205C83.5789 39.5146 82 38.522 82 36.9338L82 19.0662C82 17.478 83.5789 16.4854 84.8421 17.2795L99.0526 26.2132Z" fill="white"/>
<path fill-rule="evenodd" clip-rule="evenodd" d="M148.028 20.7575V27.0215H143.158V48.333H136.245V27.0215H133V20.7575H136.245C136.281 18.9731 136.56 17.2857 137.084 15.6977C137.608 14.1091 138.384 12.7525 139.414 11.6284C140.444 10.5035 141.7 9.65537 143.185 9.08525C144.668 8.51447 146.369 8.33403 148.29 8.5486V15.1879C146.614 15.0465 145.34 15.4563 144.467 16.4206C143.595 17.3842 143.158 18.8292 143.158 20.7575H148.028Z" fill="#393E3E"/>
<path fill-rule="evenodd" clip-rule="evenodd" d="M171.012 34.3143C171.012 33.2278 170.828 32.2117 170.455 31.2636C170.082 30.317 169.579 29.4919 168.941 28.7903C168.304 28.0878 167.56 27.5367 166.709 27.1329C165.859 26.7291 164.957 26.5289 164.001 26.5289C163.043 26.5289 162.14 26.7291 161.289 27.1329C160.44 27.5367 159.696 28.081 159.058 28.7653C158.42 29.448 157.917 30.2731 157.544 31.237C157.172 32.2027 156.986 33.2278 156.986 34.3143C156.986 35.4017 157.172 36.411 157.544 37.3418C157.917 38.2717 158.42 39.077 159.058 39.762C159.696 40.4456 160.44 40.9794 161.289 41.365C162.14 41.7514 163.043 41.9442 164.001 41.9442C164.957 41.9442 165.859 41.7438 166.709 41.3393C167.56 40.9371 168.304 40.3919 168.941 39.7091C169.579 39.0242 170.082 38.2182 170.455 37.2881C170.828 36.3581 171.012 35.3677 171.012 34.3143ZM178 47.8781H171.331V44.9353C170.237 46.0755 168.992 46.9473 167.599 47.5544C166.205 48.1586 164.662 48.4611 162.967 48.4611C161.204 48.4611 159.536 48.0988 157.965 47.3752C156.395 46.6508 155.019 45.6529 153.837 44.3817C152.655 43.1108 151.719 41.61 151.032 39.8784C150.344 38.1484 150 36.2766 150 34.2621C150 32.2494 150.344 30.3692 151.032 28.6201C151.719 26.8721 152.655 25.3621 153.837 24.0911C155.019 22.8186 156.395 21.8214 157.965 21.097C159.536 20.3741 161.204 20.0114 162.967 20.0114C164.555 20.0114 166.029 20.2879 167.388 20.8391C168.746 21.392 169.955 22.1835 171.012 23.2156V8.46109H178V47.8781Z" fill="#2C2C2C"/>
<path d="M274.421 49.5586C271.884 49.5586 269.703 48.9915 267.878 47.8574C266.052 46.7064 264.645 45.0729 263.655 42.957C262.68 40.8411 262.193 38.3359 262.193 35.4414V35.416C262.193 32.5215 262.68 30.0163 263.655 27.9004C264.645 25.7676 266.029 24.1257 267.808 22.9746C269.602 21.8066 271.714 21.2227 274.143 21.2227C276.571 21.2227 278.668 21.7897 280.431 22.9238C282.21 24.041 283.579 25.6237 284.538 27.6719C285.513 29.7201 286 32.1152 286 34.8574V37.1426H265.511V32.4707H282.798L279.572 36.8379V33.9941C279.572 32.403 279.348 31.0742 278.9 30.0078C278.451 28.9245 277.824 28.112 277.02 27.5703C276.231 27.0286 275.311 26.7578 274.259 26.7578C273.207 26.7578 272.271 27.0371 271.451 27.5957C270.647 28.1543 270.012 28.9753 269.548 30.0586C269.1 31.125 268.875 32.4368 268.875 33.9941V36.8633C268.875 38.3698 269.1 39.6562 269.548 40.7227C270.012 41.7891 270.67 42.61 271.521 43.1855C272.372 43.7441 273.385 44.0234 274.56 44.0234C275.489 44.0234 276.293 43.8626 276.974 43.541C277.654 43.2194 278.211 42.8132 278.644 42.3223C279.077 41.8314 279.371 41.332 279.526 40.8242L279.572 40.6719H285.791L285.722 40.9512C285.536 41.9499 285.172 42.957 284.631 43.9727C284.09 44.9883 283.355 45.9193 282.427 46.7656C281.514 47.612 280.392 48.2891 279.062 48.7969C277.747 49.3047 276.2 49.5586 274.421 49.5586Z" fill="#2C2C2C"/>
<path d="M249.952 49.5586C248.761 49.5586 247.67 49.347 246.68 48.9238C245.69 48.5007 244.824 47.9082 244.082 47.1465C243.339 46.3678 242.743 45.4368 242.295 44.3535H242.156V49H235.38V12.3613H242.156V26.5039H242.295C242.759 25.4036 243.362 24.4642 244.105 23.6855C244.847 22.89 245.714 22.2806 246.704 21.8574C247.709 21.4342 248.8 21.2227 249.975 21.2227C252.064 21.2227 253.858 21.7897 255.359 22.9238C256.875 24.041 258.043 25.6576 258.862 27.7734C259.682 29.8724 260.092 32.403 260.092 35.3652V35.3906C260.092 38.3359 259.682 40.8665 258.862 42.9824C258.043 45.0983 256.875 46.7233 255.359 47.8574C253.843 48.9915 252.04 49.5586 249.952 49.5586ZM247.701 43.4141C248.831 43.4141 249.805 43.0924 250.625 42.4492C251.445 41.7891 252.079 40.8581 252.528 39.6562C252.976 38.4544 253.201 37.0326 253.201 35.3906V35.3652C253.201 33.7064 252.976 32.2845 252.528 31.0996C252.079 29.8978 251.437 28.9753 250.602 28.332C249.782 27.6888 248.815 27.3672 247.701 27.3672C246.603 27.3672 245.636 27.6973 244.801 28.3574C243.981 29.0007 243.331 29.9232 242.852 31.125C242.388 32.3099 242.156 33.7233 242.156 35.3652V35.3906C242.156 37.0326 242.388 38.4544 242.852 39.6562C243.316 40.8581 243.965 41.7891 244.801 42.4492C245.636 43.0924 246.603 43.4141 247.701 43.4141Z" fill="#2C2C2C"/>
<path d="M216.782 49.5586C214.956 49.5586 213.402 49.1523 212.118 48.3398C210.849 47.5104 209.874 46.334 209.194 44.8105C208.529 43.2871 208.196 41.4674 208.196 39.3516V21.7812H214.972V37.8027C214.972 39.5801 215.351 40.9596 216.109 41.9414C216.882 42.9232 218.027 43.4141 219.543 43.4141C220.301 43.4141 220.981 43.2702 221.585 42.9824C222.204 42.6947 222.73 42.2884 223.163 41.7637C223.596 41.222 223.928 40.5872 224.16 39.8594C224.392 39.1146 224.508 38.3021 224.508 37.4219V21.7812H231.284V49H224.508V44.5059H224.369C223.936 45.5384 223.364 46.4355 222.652 47.1973C221.956 47.959 221.113 48.543 220.123 48.9492C219.148 49.3555 218.035 49.5586 216.782 49.5586Z" fill="#2C2C2C"/>
<path d="M191.895 49V18.6836H182.219V12.3613H208.602V18.6836H198.902V49H191.895Z" fill="#2C2C2C"/>
</svg>
